<?xml version="1.0" encoding="utf-8"?>
<!-- Generator: Adobe Illustrator 26.3.1, SVG Export Plug-In . SVG Version: 6.00 Build 0)  -->
<svg version="1.1" id="Ebene_1" xmlns="http://www.w3.org/2000/svg" xmlns:xlink="http://www.w3.org/1999/xlink" x="0px" y="0px"
	 viewBox="0 0 15 7" style="enable-background:new 0 0 15 7;" xml:space="preserve">
<style type="text/css">
	.st0{fill:#232323;}
</style>
<path class="st0" d="M14,1.8h-1.2V1.3c0-0.4-0.4-0.8-0.8-0.8H1.2c-0.4,0-0.8,0.4-0.8,0.8v4.5c0,0.4,0.4,0.8,0.8,0.8H12
	c0.4,0,0.8-0.4,0.8-0.8V5.2H14c0.3,0,0.6-0.3,0.6-0.6V2.4C14.6,2.1,14.3,1.8,14,1.8z M1.1,5.7V1.3c0-0.1,0.1-0.2,0.2-0.2h6.9v4.8h-7
	C1.1,5.9,1.1,5.8,1.1,5.7z M12.2,5.7c0,0.1,0,0.2-0.3,0.2H8.8V1.1H12c0.1,0,0.2,0.1,0.2,0.2V5.7L12.2,5.7z M13.9,4.5h-1.1v-2h1.1
	V4.5z"/>
</svg>
